<svg width="262" height="256" viewBox="0 0 262 256" fill="none" xmlns="http://www.w3.org/2000/svg">
<g filter="url(#filter0_f_107_275)">
<rect x="77" y="77" width="107.865" height="101.573" rx="50.7865" fill="#FFEF9A"/>
</g>
<g filter="url(#filter1_i_107_275)">
<path d="M177.674 135.876C177.674 161.691 156.747 182.618 130.933 182.618C105.118 182.618 84.191 161.691 84.191 135.876C84.191 110.062 105.118 89.1348 130.933 89.1348C156.747 89.1348 177.674 110.062 177.674 135.876Z" fill="url(#paint0_linear_107_275)"/>
</g>
<g filter="url(#filter3_i_107_275)">
<path d="M157.596 159.979C157.921 158.135 158.09 156.237 158.09 154.3C158.09 136.182 143.266 121.494 124.978 121.494C111.384 121.494 99.7022 129.612 94.6028 141.221C90.4716 137.688 85.1109 135.554 79.2528 135.554C66.1906 135.554 55.6015 146.162 55.6015 159.247C55.6015 159.976 55.6344 160.697 55.6987 161.409C49.416 164.458 45.0899 170.855 45.0899 178.254C45.0899 188.607 53.5611 197 64.0109 197H153.36C163.81 197 172.281 188.607 172.281 178.254C172.281 169.343 166.006 161.885 157.596 159.979Z" fill="url(#paint1_linear_107_275)"/>
</g>
<defs>
<filter id="filter0_f_107_275" x="0" y="0" width="261.865" height="255.573" filterUnits="userSpaceOnUse" color-interpolation-filters="sRGB">
<feFlood flood-opacity="0" result="BackgroundImageFix"/>
<feBlend mode="normal" in="SourceGraphic" in2="BackgroundImageFix" result="shape"/>
<feGaussianBlur stdDeviation="38.5" result="effect1_foregroundBlur_107_275"/>
</filter>
<filter id="filter1_i_107_275" x="84.191" y="89.1348" width="93.4832" height="98.4831" filterUnits="userSpaceOnUse" color-interpolation-filters="sRGB">
<feFlood flood-opacity="0" result="BackgroundImageFix"/>
<feBlend mode="normal" in="SourceGraphic" in2="BackgroundImageFix" result="shape"/>
<feColorMatrix in="SourceAlpha" type="matrix" values="0 0 0 0 0 0 0 0 0 0 0 0 0 0 0 0 0 0 127 0" result="hardAlpha"/>
<feOffset dy="5"/>
<feGaussianBlur stdDeviation="9"/>
<feComposite in2="hardAlpha" operator="arithmetic" k2="-1" k3="1"/>
<feColorMatrix type="matrix" values="0 0 0 0 1 0 0 0 0 1 0 0 0 0 1 0 0 0 0.81 0"/>
<feBlend mode="normal" in2="shape" result="effect1_innerShadow_107_275"/>
</filter>
<filter id="filter3_i_107_275" x="45.0899" y="121.494" width="127.191" height="85.5056" filterUnits="userSpaceOnUse" color-interpolation-filters="sRGB">
<feFlood flood-opacity="0" result="BackgroundImageFix"/>
<feBlend mode="normal" in="SourceGraphic" in2="BackgroundImageFix" result="shape"/>
<feColorMatrix in="SourceAlpha" type="matrix" values="0 0 0 0 0 0 0 0 0 0 0 0 0 0 0 0 0 0 127 0" result="hardAlpha"/>
<feOffset dy="11"/>
<feGaussianBlur stdDeviation="5"/>
<feComposite in2="hardAlpha" operator="arithmetic" k2="-1" k3="1"/>
<feColorMatrix type="matrix" values="0 0 0 0 1 0 0 0 0 1 0 0 0 0 1 0 0 0 1 0"/>
<feBlend mode="normal" in2="shape" result="effect1_innerShadow_107_275"/>
</filter>
<linearGradient id="paint0_linear_107_275" x1="123.833" y1="161.318" x2="162.291" y2="93.8682" gradientUnits="userSpaceOnUse">
<stop stop-color="#FF9900"/>
<stop offset="1" stop-color="#FFEE94"/>
</linearGradient>
<linearGradient id="paint1_linear_107_275" x1="53.1798" y1="190.258" x2="181.494" y2="94.3034" gradientUnits="userSpaceOnUse">
<stop stop-color="white"/>
<stop offset="1" stop-color="white" stop-opacity="0.58"/>
</linearGradient>
</defs>
</svg>
